/* XPM */
static char *_1676194916[] = {
/* columns rows colors chars-per-pixel */
"50 50 41 1 ",
"  c #535354",
". c gray34",
"X c #585857",
"o c #575758",
"O c #585858",
"+ c gray35",
"@ c #5B5B5B",
"# c #5C5C5B",
"$ c gray36",
"% c #5F5F5F",
"& c #5F605F",
"* c #60605F",
"= c #5F5F60",
"- c #606060",
"; c gray38",
": c #646463",
"> c #636364",
", c #646464",
"< c #676767",
"1 c #676867",
"2 c #686866",
"3 c #686867",
"4 c #686868",
"5 c gray42",
"6 c #6D6D6B",
"7 c #6C6C6C",
"8 c #6D6D6C",
"9 c #6F6F6C",
"0 c #71716E",
"q c #717170",
"w c #747471",
"e c #757573",
"r c #7A7A75",
"t c #787876",
"y c #7F7F7A",
"u c #7E7E7B",
"i c #7F7F7B",
"p c #80817C",
"a c #8B8B85",
"s c #979890",
"d c #A2A298",
/* pixels */
"+++;<<;.++<<<%.+%<<;+++;<4;+++<<<%..%<<;+++;<<;.++",
"+++;<<;+++<<<%+o%<<<+++;<<;.++<<<%.+%<<;++.<<<;+++",
"++.;<<;+.+<<<%..+<<<++.%<<;+.+<<<+.++<<<++.;<<;.++",
";;;;%%%;;%%%.;%;;%%+;;;%%+;;;;%+%;;;;%%%;;;%+%%;;;",
"<<<+..+<<<+..;84;.o+<<<%..%<<<+..;<<;.++<4<++.%<<<",
"<<<%..%<<<+..%ie%+++<<<%..%<<<+++;<<;o++<<<%..%3<<",
";;;%%%%;;;+%%;;;;+;+;;;%+%%;;%%%+;;;<+8dq%;;%+;;;;",
".+.;<<;..+4<<%..%<<<+.+;<<;.+.<<<%+.%<8s3..;<<;..+",
"+++;<<;.++<<<%..=<<<++X;<<;+++<<4%X+%<<+++X;<4;.++",
"+++;<<;++%<;<%+++<8;%++%<<*+%+;<3%++%<;<+++;<<;+++",
"<;4%++%<<;+++;<<;++%;<<:.+%<:3+++;<3%#+%<<<%++%<<<",
"<<<%+.+<<<++.;<<;++.<<<i;+%<<4+++;<4;.++<>4:..+<<<",
"<<<%..%<<<+..;<4<X++<<<%X.%43<+##<33;+.+<<<%..%<<<",
"%%%;;;%%+%;;;%+%%;;;%%+*;;;+43*<343;;;;;%+%%;;%%%+",
"...;<<;.++<<4%..%<<<.++;<<<+++<360<+;<<<+..;<<;..+",
"...;<<;.++<<<%..%<<83.+;<<;.X+346;%+%<<3++.;<<;.+.",
"%%+%;%%%%%;;;;+%%;;<6%+%;;;%+=;><;;;%;;;%%+;;;;%;+",
"<<<%..%4<<+..;<<;.+.<<4;.++<84+++*33;+++<<<%..%<<<",
"<<<%+.+4<;+++;<<;+o+<<3%++%<3< r8%<<;+++<<<%.+%<<<",
"<%<%++%<<;%++;<<;+%+;<<X++%<<<+%%*<3:++#;%<%+.%<<;",
"+++;<<*++%;<<%++*<<;++*e;<;+++<<3%..#<<:%%;;<<;+.+",
"+++;<<;+++<<<%.+%<<<+.3i;<<X++;<4++4%<<<++.;<<;+++",
"+++;<<;++.3a<%+.%<<<++X#44;+++<<<%.<%<<<+X.;<<;.++",
";;;%#%;;;;%;+<3;%%%+;;4<%;;;;:%%%;;%;+%%;3;;%+;;;;",
"<<<%..+1<1+..;4<;..%<<4;+.%4<<..X;<3;+.+<<4+..%<<<",
"<<<%..%<<<++X:33;+++<<<%.+*43<+..;<<;.++<<4%..%<<<",
";;;=%%%;;;%#%%;;;%%+;;;;%&;;;;+8e;:;;%+%;;;;%+%;;;",
"+.+;<<;..+<<<%..%<<<+.+;<<<+++48q+++%<<<+..;<<;..+",
"++.;<<;+++<<<%+.+44<+++;<<;+++<;>%.++<<<++.;<<;+++",
"+++;<;;+++<<<%%+%<<<++%%<<;++*;<<%++;<<<%.+;<<;+++",
"<<<%++%<<;%+.;<<:+.%;<1%++;<<>%++;<<;+++%<<%+++<4<",
"<<<%..%<<<++#;4<;+X+<<<%+X+<<<++.;<<;.++<<<%..%<<<",
"<<<%+.%<<<+.%;4<;..+<3<.+o%<3<.+ 4p4;X%+<<<+++%<<<",
"+%+%;;%%%#;=*%%%%;;;;+30%;%%%%<;:;;;;;%;%%%;;;;+%%",
".++;<<;..+<<<%..%<<<+.<r<4;..+33<%..%<<<.+.;<<;+.+",
"+.+;<<;..+<<<#..%<<<++ %<4;.++<<<%..+<<<;.+<<<;...",
"%%+;;;;%+%;;;%%%%;;;%%%;;;%%%+=;;*%$=;;;<%*;;;*%;%",
"<<<%.++<4<+.+:40;.++<<3;%+%<<3%X+;7i8o++;<3%..%<;<",
"<<<%.+%<<<+++;<<<+++;<<;++;<<<%+X;4e3.+.3<<%+.%<<<",
";<<+++%<<;%++;<4p4++;<<%++%><%+++;<<;++%4;4%+++<<<",
"+++;<<;+++<<<%++46<;%++;<<:;+%;<4;%++<<<+++;4<;+++",
"+++;<4;+++;<<+.++<<:+++;<<:#++<43;+X%<<;+++;4<;X++",
"+++;<<;.++<<<%..%<<<+++;<<;..o<0<+..%<<<+++;<<;+++",
";;;%+%%;;;%%%;;;;+%%;;;;%#%<;;%%*;;;;+%%;;;;%%%;;;",
"4<<%..+<<<+..;<<;.++<<<+..#<<<+.+<<<;..+<<4+..%<<<",
"4<4+..%<<<+..;<<;.++<<<%..%<<<+..;<<;..+<<4%..+<<<",
";;;;%%;;;;+%%%;;;%%%;;;%%%%;;;%+#%;;%%+%%;;;%%%;;;",
"++.;<<;..+<<<%.++<<<+..;<<;..+<<<%..%44<++.%<<;.++",
"+++;<<;.++<<<+.+%<<<++.;<<;.++<<<%.+%<;<++.;<<;+++",
"+++;<<;+++<<<%+.%<<;+++;<<;+++<<<%..%<<<+.+;<<;.++"
};
