/* XPM */
static char *_7de13038b0c42abca3bcffea9f9e470Wn9h0zfrFTj00olY[] = {
/* columns rows colors chars-per-pixel */
"50 50 74 1 ",
"  c #0C0300",
". c #160D04",
"X c #190F06",
"o c #1A1007",
"O c #1D140B",
"+ c #21170E",
"@ c #23190F",
"# c #251C13",
"$ c #281F16",
"% c #292017",
"& c #2E241B",
"* c #31271E",
"= c #32281F",
"- c #352C23",
"; c #382E25",
": c #3D332A",
"> c #41372E",
", c #42382F",
"< c #453B32",
"1 c #493F36",
"2 c #4A4037",
"3 c #4D443B",
"4 c #50463D",
"5 c #51483F",
"6 c #504740",
"7 c #554B43",
"8 c #594F46",
"9 c #5A5047",
"0 c #5C534A",
"q c #60574D",
"w c #62584F",
"e c #655B53",
"r c #695F56",
"t c #6A6057",
"y c #6D635A",
"u c #71675D",
"i c #72685F",
"p c #706760",
"a c #756B62",
"s c #786E65",
"d c #7A7067",
"f c #7D736A",
"g c #80766D",
"h c #82786F",
"j c #807770",
"k c #857B72",
"l c #887E75",
"z c #878076",
"x c #898077",
"c c #8D837B",
"v c #91877E",
"b c #92887F",
"n c #958B82",
"m c #998F86",
"M c #998F89",
"N c #9A9087",
"B c #9D938A",
"V c #A1968D",
"C c #A2988F",
"Z c #A59B92",
"A c #A99E95",
"S c #AAA097",
"D c #ADA39A",
"F c #B1A69D",
"G c #B3A89F",
"H c #B5ABA2",
"J c #BAAEA5",
"K c #BAB0A6",
"L c #BDB3AA",
"P c #C2B5AD",
"I c #C2B8AE",
"U c #C5B9B0",
"Y c #C9BDB4",
"T c #D6C9C0",
/* pixels */
"nBnuvZmBmCnVbmbBmnlgLVAZAAZAZSmB8CKZCSBZZCDZZBSSmN",
"nZmsnNmBBbBnVmZmBVv8VDBZBZZVVAVByKGSSBMmnZBnCDZmBB",
"nCkaVBVmVmCnmblgiuqX-rasflxxnnnc0LSBCnCBnBCGSBmBBB",
"vl07gkclsiyq<5ebmbBnkcmxkgsrurt33GGGSnCmCBMBNNBMcN",
"q044wtiariii>8ZPFJDJHFJHHDHFFZc73fnBnffkzkzszsfpya",
"vnVZAAAAbVVVgqZAZGFZAFSAAZAZSFZt0808300ee8q0,-rfnN",
"VVZVmmnNCVbVv4uAZnZZZVBZZVZBnNf0jvnNMBmzNnBB0aZZZC",
"nBVVBBBVCmmnbvelACVvvxnvclfsqq1:nZNCBNBBMCvM7cZBmm",
"nVBmNVVCNbVnVVq<eyffflnBBxxcnnc7cZmmnBMBnNnx9zMBBB",
"nBNnmmmVnnbkirur-NLDLJGDDAAHAASafBMnMnBmBnMnajZMmB",
"nnmBVmvlgsuslmZbrSDmDVZZBHDABAZp:67802snnnnnranMNm",
"NVCmliudkbmmmVBmhZZAASAASDCZBZBnqMZCf8yytae: kZMBB",
"harrskbNVmnmCVmnkDCSVAVZNBmZNNZNtJJKHDJFDMcz1nJASC",
"tdvmBmmBnVbnnmnueHCCBVNZZFACZnmf7ASDDHADDHJJlefae0",
"nmBmmVNmNVNVCZb53mIHABcgj0asdq07:cKDCAAGHZnBn:edcv",
"BCZVNVVnbvnvhgq44#rryagli+vDVBVBfpmNVBVBBBNNp7lMmN",
"eizt2yqityiuuiazmZVbVGGFGghDVmVVM7iVMVMjkkle6e86ee",
"zggbe.zHDGGFFKJKHFPFSGDGGV8Vbbkvg17pape6>qjMnMVscx",
"bDZbbeIbGDGGGSZSFCFSDGCCGA5ru7tdlnlVBnvv9sZVZVZMVV",
"bbbVzxGSDGGDDDZCVVAVCANCDby>avnVBVMmBVVZgeVMMnMMmm",
"vmmByzHDGSSSSCNBBmbBBmnVMZatZBBnmBmVBVBlppCMMnBnmm",
"mBNmi5zGDZSZCbbCBBVVZVAVmp00ZNANBBmBlmVmsrCBCMMMmm",
"zditt>:ubbbzzbCNBVVchkhi6#d:aBcnMmlmlmgg0 :wyslncn",
"40zDLLbzr2::25eit81>,4<1908erdfy0q711w4gjseesrw0re",
"afHCSGGDHDbzgixrXfnnNVbbCCZSSBBBlllk1VZZPAPHPGVnMZ",
"yqYCCFCZDDADDZHb5LCBVbCCBBNBmmBBBVABemFFZFASACJDHF",
"z5FSKADSDbZAZDbi:CSvBCbCBBmBmmBBNNVVrlPFFFSSFFFZAZ",
"v5KSbDbbAbCZbbAz-SCBSBBBnmmncbNmmVlMwAPAHVVNVVnBmm",
"a0bGbAZbCCbbZNbz@bSBbbBbnBBBBZBBnmMl1lDGmVVVVmVmnm",
"254aCbGHGbzryiiw,iBZCSBSCzznnjxBVlh7#>71yhhhjjse<1",
"yzt2552422yugVSDFd4zDBbdy0wf9%:2eqilMCl087>1eurrwp",
"VbZxbcczg5ZIFJFFDSSs8tdchnmSa0NSlAAPZPAnPl#qAVZMMC",
"bbCCbCbCbqbGFCACAGHNrVZCBBCceAFJZFGGDAFHA08nAmBBVV",
"bZZbbZCbVqbIABVASSnganfazfaeBHHAVAAADAZAg=dZlBVnmn",
"bbbVZVbCbfaVzufzair00iahjy&8JFGVNnnNVmmn1umvnmvBbn",
"BCbbbVbbCg*5ryzghlmVCNBBBB9<bSAmVVZVMZMr>mZnMmCmNN",
"zbBCbbbBbiiCbCCCNNVmVbnmBcj;CDNSGCmlgy7o$6fsrugjxx",
"yarudyzcbygDCVbbVNBNNNVNnBN9dzttr017qraga9-$8rrurr",
"Bb02tudyq55gueddaaddagauyy88=5wyylZVZSABmVurVZZCVB",
"bZfgZCZCbbbxggr5wlvxlkthjdi<3ZGCZACVNmBBnZuwmMnmNN",
"bBBtBBbbVVNZVZb3bCVCVVVVBNBs=bSBVnmCBBVMVVrrBmBNbB",
"nzndzCCSVZbVNBb0vVnNNVNNnBnz%zDbmVVvVZmMbj0<wyusxB",
"0e944e4ddczzzbz4uNNCNNnVCnmb90SnBMmCBbBmv0fmNngfy9",
"BHZZBBa0ddghdy0&vAbnbNbnNnBNz;cGnmBBZDBmueAPDGFDCw",
"nSBSZAbgCACNBZaohVnVBVVCBCbNx5walZBxq8r1&3supffcvw",
"09t0as42asiiae040utriuutaafdi:30770vAlgpurq7rewtur",
"bzBw,dvbgxbBCbbbva52bVVbhwati4ety fUAPPYPFFADDGZAZ",
"BSSzhABVVVCBNBCCCCliHSDGDZZDBDNf;ySUFVCZFDHDDASSZS",
"BSSfnCBNBCBbbBBNNZjdGZZZCSSBZZSSekTJSCASBVCDFSAAFV",
"NBnybBNBBBBnNBNNNZlfHAZZSDGSSCVC0aYSVBCSSDGGGZbVDb"
};
