/* XPM */
static char *_b120139e60b4136e98d5cb3c3c92677L0yaISrPJoSaFRzR[] = {
/* columns rows colors chars-per-pixel */
"50 50 197 2 ",
"   c None",
".  c #61211C",
"X  c #7D5E09",
"o  c #7E4611",
"O  c #83620F",
"+  c #8B6B15",
"@  c #926514",
"#  c #8C7212",
"$  c #AB6C0D",
"%  c #AA700D",
"&  c #B4790D",
"*  c #BC7E0D",
"=  c #B47708",
"-  c #AC7413",
";  c #B47C12",
":  c #B97D14",
">  c #B07B19",
",  c #8D6A20",
"<  c #9B7D24",
"1  c #98772C",
"2  c #977C28",
"3  c #977B4B",
"4  c #9B8013",
"5  c #A38707",
"6  c #BD820A",
"7  c #BB8204",
"8  c #A18016",
"9  c #AC8316",
"0  c #A88518",
"q  c #AB8A1B",
"w  c #AB8718",
"e  c #B98017",
"r  c #B38C16",
"t  c #B4821A",
"y  c #BA8618",
"u  c #B28E19",
"i  c #B18713",
"p  c #AE931F",
"a  c #B99415",
"s  c #BE9A16",
"d  c #BC921B",
"f  c #B79B1A",
"g  c #BC9D1D",
"h  c #B49415",
"j  c #BCA418",
"k  c #9A802F",
"l  c #A38224",
"z  c #A88E27",
"x  c #AA8A28",
"c  c #B99723",
"v  c #B49926",
"b  c #BD9C23",
"n  c #B0972B",
"m  c #B7992A",
"M  c #BB9D2B",
"N  c #A68B35",
"B  c #A08433",
"V  c #AB913D",
"C  c #B89C3F",
"Z  c #BEA02D",
"A  c #BAA333",
"S  c #C3870F",
"D  c #C58909",
"F  c #C4910C",
"G  c #C28413",
"H  c #C28B13",
"J  c #C18E1B",
"K  c #C39213",
"L  c #CD9415",
"P  c #C9971E",
"I  c #C39D1A",
"U  c #C99B1D",
"Y  c #C5971C",
"T  c #DCBA0F",
"R  c #C6A21B",
"E  c #CBA51B",
"W  c #CDAB1C",
"Q  c #C6A718",
"!  c #D2A41C",
"~  c #D2AB1A",
"^  c #CFB41E",
"/  c #D4B316",
"(  c #D9B615",
")  c #DCBB17",
"_  c #D5B31B",
"`  c #D9B61C",
"'  c #D5B91E",
"]  c #DCBC1C",
"[  c #E0BF11",
"{  c #C3AA23",
"}  c #CAAB28",
"|  c #C7AB25",
" . c #D6AF2A",
".. c #CEB122",
"X. c #CFBA24",
"o. c #CEBA28",
"O. c #D3B424",
"+. c #DBBB22",
"@. c #D4B429",
"#. c #D3BB2A",
"$. c #DCBD2A",
"%. c #D9B427",
"&. c #C8A839",
"*. c #C3A93B",
"=. c #CDB230",
"-. c #CCB13A",
";. c #D5B530",
":. c #DEBD34",
">. c #DBBE3A",
",. c #E0BF20",
"<. c #DFC015",
"1. c #DDC11D",
"2. c #E2C10F",
"3. c #E3C413",
"4. c #E2C41C",
"5. c #E5CA1D",
"6. c #EACA1E",
"7. c #EBD31A",
"8. c #F2D71D",
"9. c #F3DA1E",
"0. c #FCE31C",
"q. c #FFE81C",
"w. c #F6E11B",
"e. c #DDC221",
"r. c #DCC12B",
"t. c #D5C12E",
"y. c #DEC43A",
"u. c #DCC533",
"i. c #E2C422",
"p. c #E5CA22",
"a. c #EBCD25",
"s. c #E3C52C",
"d. c #E4CA2A",
"f. c #EBCF2D",
"g. c #F1CF20",
"h. c #EDD225",
"j. c #ECD229",
"k. c #F2D424",
"l. c #F8D620",
"z. c #F6DA23",
"x. c #F9DB25",
"c. c #F3DB2A",
"v. c #F0D32D",
"b. c #E3C732",
"n. c #E5CB33",
"m. c #E4C93C",
"M. c #E1C33F",
"N. c #E4D130",
"B. c #EBD334",
"V. c #EFDD31",
"C. c #ECD439",
"Z. c #F5DC33",
"A. c #F3D73C",
"S. c #F7DE3B",
"D. c #F7E023",
"F. c #FDE324",
"G. c #FFE926",
"H. c #F4E32D",
"J. c #FDE62C",
"K. c #FFEB2B",
"L. c #FFF626",
"P. c #FEFD24",
"I. c #FFF329",
"U. c #FFFA2D",
"Y. c #F6E632",
"T. c #FBE230",
"R. c #F7E932",
"E. c #FBEC34",
"W. c #FCE33A",
"Q. c #FDED3D",
"!. c #F4E239",
"~. c #FEF433",
"^. c #FFFC35",
"/. c #FFF03A",
"(. c #FFFE3B",
"). c #9F8544",
"_. c #9A8359",
"`. c #A58B4C",
"'. c #B49C42",
"]. c #B99A55",
"[. c #B5A15B",
"{. c #C8B352",
"}. c #D2BF63",
"|. c #DBC65C",
" X c #EBD140",
".X c #F0D74B",
"XX c #F7DF48",
"oX c #FCE743",
"OX c #FFED43",
"+X c #FEEA4B",
"@X c #F9E448",
"#X c #FFF041",
"$X c #FFF64C",
"%X c #FFFD4A",
"&X c #FFEC50",
"*X c #F8E05A",
"=X c #FBED61",
/* pixels */
"                                                                                                    ",
"                                                                                                    ",
"                                                                                                    ",
"                                                                                                    ",
"                                                                                                    ",
"                                                                                                    ",
"                                                                                                    ",
"                                                                                                    ",
"                                                        c.                                          ",
"                                                E.^.^.K.G.k.R.                                      ",
"                                            Q.(.E.~.K.x.p.j.G.U.H.                                  ",
"                                          +X%XQ./.~.K.c.a.p.h.x.I.                                  ",
"                                        %XQ.#XW.#.f w 8 s 4.k.c.J.L.                                ",
"                                      $XOX&Xm.l k z n p + O 1.x.G.P.P.                              ",
"                                    $XOXoX&.x &.u.b.d.i.` f 4 8.F.L.L.                              ",
"                                  $X%X$X-.`.r.i.f.c.k.a.p.4.h j G.J.I.                              ",
"                                  %X#Xy._.|.a.Z.J.^.~.9.1.p.) f c.z.F.x.                            ",
"                                XXOX.X`.}.Z.B.^ T.^.(.~.8.e.5.^ 1.g.8.F.                            ",
"                                +XS.&.[..XC.O . o.^.~.e.e.e.1.' ' h.9.F.                            ",
"                              oXQ.A.`.|.Z.M 3 '.r.(.Z o # p.' _ ..z.0.F.                            ",
"                              W.W.b.[.C.c.C ].I Z.R.l c q O.O.) ' F.q.q.                            ",
"                              *Xs.{.{.p.V.N.{ #.n.t.< 9 b } ..( e.9.w.w.                            ",
"                            =X@X:.'.-.e.o.R.V.d.o.$.j u $.Z ' / e.k.w.8.                            ",
"                            Q.T.M.N =.1.Q H.Y.r.e.+.` +.;.m ) W 5.9.7.K                             ",
"                            !.c.$.N X.1.1.V.#.5.+.+.` a @ ..) ..i.8.7.a                             ",
"                            !.j.>.B } ] e.u.v 3.*.g b + g / _ _ ,.4.a.E                             ",
"                            Y.h.b.N Z 1.Z 4 } v.V 0 < Z Q Q W O.` i.s.>                             ",
"                            Y.c.a.v b ' X.n 1 5 1 1 u Y i s O.+.+.d. .%                             ",
"                            Y.x.f.X.i ' +.W b 0 z Y I r i I ` +.r.f.P ;                             ",
"                            R.J.a.i.u I / ` / ..R W I r a ~ [ 4.p.,.;                               ",
"                            E.K.5.i.W 9 E ) ] _ ..~ I d .._ i.3.f.E -                               ",
"                              D.4.1.` W a Q W E R R ~ ` _ [ [ f. .6 t                               ",
"                              1.4.] ` ` _ ~ E E _ i.[ ` ) [ s.:.7 :                                 ",
"                              _ g.%.( ` ` $.+.] 6.4.) 4.3.4.m.K S e                                 ",
"                                A.+./ _ ) / ` ` +.4.4.3.5.B.U * e                                   ",
"                                E 6.( W +.] ` ) 1.<.3.j.d.! & :                                     ",
"                                  U ` ,.:.( ] ] 4.p.n.%.6 & G                                       ",
"                                  y D O.s.) ] [ a.$.H = & L J                                       ",
"                                    J H F F F H H = % G H                                           ",
"                                      J H D S : : G H U                                             ",
"                                          ~ ! I t U                                                 ",
"                                                                                                    ",
"                                                                                                    ",
"                                                                                                    ",
"                                                                                                    ",
"                                                                                                    ",
"                                                                                                    ",
"                                                                                                    ",
"                                                                                                    ",
"                                                                                                    "
};
