/* XPM */
static char *a85f6176918440e8a68c7f39de0cf4fdfOtrnBe2NVQnrqlI[] = {
/* columns rows colors chars-per-pixel */
"50 50 202 2 ",
"   c None",
".  c #0D0000",
"X  c #1B0C00",
"o  c #150800",
"O  c #251400",
"+  c #2A1B03",
"@  c #301F03",
"#  c #272000",
"$  c #332304",
"%  c #3C2B05",
"&  c #35240D",
"*  c #372907",
"=  c #3B2911",
"-  c #382610",
";  c #4A360B",
":  c #453A0D",
">  c #49390A",
",  c #412E13",
"<  c #453115",
"1  c #4A3515",
"2  c #413912",
"3  c #4C3E12",
"4  c #43321B",
"5  c #49351B",
"6  c #4D3A1C",
"7  c #423B1E",
"8  c #523D13",
"9  c #443523",
"0  c #4E3A21",
"q  c #4D3D2E",
"w  c #513D24",
"e  c #544415",
"r  c #5C4616",
"t  c #5B4915",
"y  c #53441B",
"u  c #56481B",
"i  c #5B4B1C",
"p  c #5E511C",
"a  c #634D1D",
"s  c #604917",
"d  c #62511D",
"f  c #4F4426",
"g  c #554424",
"h  c #5D4D23",
"j  c #56462D",
"k  c #5D4C2C",
"l  c #5B4826",
"z  c #5F5126",
"x  c #5E5029",
"c  c #5D4D34",
"v  c #5B4B3A",
"b  c #5D5434",
"n  c #5D533A",
"m  c #634D23",
"M  c #624E29",
"N  c #645223",
"B  c #6B5524",
"V  c #655925",
"C  c #6D5A26",
"Z  c #63532C",
"A  c #6C552D",
"S  c #6C5A2A",
"D  c #675B2B",
"F  c #705927",
"G  c #725C2B",
"H  c #73592A",
"J  c #614F32",
"K  c #645434",
"L  c #6A5634",
"P  c #665B35",
"I  c #6C5B33",
"U  c #64543A",
"Y  c #6E563A",
"T  c #655B3A",
"R  c #6C5C3C",
"E  c #725D34",
"W  c #735E3B",
"Q  c #6E612D",
"!  c #73612E",
"~  c #6E6336",
"^  c #6D633D",
"/  c #746334",
"(  c #7A6534",
")  c #7B6936",
"_  c #73653C",
"`  c #7A643A",
"'  c #75693B",
"]  c #7C6B3C",
"[  c #7E733C",
"{  c #6C5B42",
"}  c #745E42",
"|  c #785F41",
" . c #6A6140",
".. c #736542",
"X. c #7C6344",
"o. c #736A43",
"O. c #7C6D44",
"+. c #7C6C49",
"@. c #76664B",
"#. c #7E7145",
"$. c #7D714C",
"%. c #796854",
"&. c #7F725A",
"*. c #806634",
"=. c #806936",
"-. c #836D3C",
";. c #896D3B",
":. c #84723E",
">. c #8B733F",
",. c #87783F",
"<. c #836D42",
"1. c #826C4C",
"2. c #847343",
"3. c #8B7443",
"4. c #877844",
"5. c #8C7945",
"6. c #84744A",
"7. c #8A754B",
"8. c #877C4C",
"9. c #8C7B4B",
"0. c #917646",
"q. c #917A46",
"w. c #937D4B",
"e. c #947A4E",
"r. c #846F52",
"t. c #867652",
"y. c #897753",
"u. c #867A52",
"i. c #8D7C53",
"p. c #8D7D5A",
"a. c #8A765B",
"s. c #927D52",
"d. c #937E5A",
"f. c #987F57",
"g. c #8D7C62",
"h. c #8D804B",
"j. c #94814D",
"k. c #99824E",
"l. c #8E8151",
"z. c #8D835F",
"x. c #958352",
"c. c #9A8452",
"v. c #968956",
"b. c #9C8955",
"n. c #95835B",
"m. c #9A845A",
"M. c #9D8B5A",
"N. c #978958",
"B. c #A18A56",
"V. c #A58E5B",
"C. c #A6915D",
"Z. c #AA935F",
"A. c #9A8661",
"S. c #9C8962",
"D. c #9E8E6C",
"F. c #988769",
"G. c #938673",
"H. c #A08963",
"J. c #A4946F",
"K. c #A6967D",
"L. c #AFA07F",
"P. c #B7A47C",
"I. c #AA9E92",
"U. c #AEA185",
"Y. c #ADA28C",
"T. c #B2A682",
"R. c #B7A984",
"E. c #B9AB86",
"W. c #B3A38A",
"Q. c #BAAB8C",
"!. c #B8A98B",
"~. c #B9B18D",
"^. c #BCAE91",
"/. c #B0A393",
"(. c #BFB194",
"). c #C1AD92",
"_. c #C2B094",
"`. c #C5BA98",
"'. c #C8BDA1",
"]. c #D1C396",
"[. c #DFD1AC",
"{. c #CFC2B9",
"}. c #DDD6BC",
"|. c #E0CDA5",
" X c #E3D0A6",
".X c #E0D7B1",
"XX c #EADCB5",
"oX c #E6DCBA",
"OX c #E5DCB5",
"+X c #EFE3BB",
"@X c #F4E6BF",
"#X c #E4DBCA",
"$X c #EFE6C5",
"%X c #F2E6C2",
"&X c #F9ECC6",
"*X c #FFF1CE",
"=X c #EFE2D9",
"-X c #FFFFDA",
";X c #FFF3D2",
":X c #FFFEEC",
">X c #FFF7EB",
",X c #FFFEF2",
/* pixels */
"                                                                                                    ",
"                                                                                                    ",
"                                                                                                    ",
"                                        4 = - & + O O @                                             ",
"                              = o + 6                                                               ",
"                        = # e ^ ' ' d.S.d.n.H.f.7.r.9.x.m.m.d.x.#.4.                                ",
"                    # e ' h.h.h.8.1.s.m.7.7.7.W ` ` ` ] :.:.9.v.4.:.7.d.A.1.                        ",
"                    #.h.l.l.9.8.] N N N 3 e m 8 ; 8 i i t t d C t / 7.s.n.H.f.f.                    ",
"                i.6.9.N.<.1.Z h : > u h % z ^ Z h i ~ V / > p ! S N > H X.7.e.e.b.7.2.              ",
"        7     #.n.7.2.O.l L g g : u z D y o.6.O...Z $.#.[ D Q [ ` S 8 A L A Y H F 9.2.] ..f 9       ",
"              n.2.<.` M , J j c 3 I ~ _ b o.@.$.^ 2 u.Q ' V v.v.s.X.N 1.E l s *.( ) 3.M.u.j n       ",
"            _ 6./ X.<.L < Y } } h ] #.#.D ^ z.~.U.z.].J.' Q l.M.N.6.W n.<.m B 0.q.d / 8.#.U.        ",
"              S -.s.f.W 6 W } { Z ] O.O.k _ Q.-X*X*X-X&X#.[ ] b.v.[ / S.7.m H f.>.3.' O.(.          ",
"              O.7.m.f.W 1 L { R m ` 7.6.M ..T.;X-X-X-X].h.V q.C.v.[ Q M.<.a a e.3.q.<.L.:X          ",
"              6.<.s.s.E 1 L Y } a ` 9.7.m ` d.D.*X*X|.w.k.s k.B.b.[ ! b.3.s m 3.9.I .._.,X          ",
"              X.<.e.9.W 1 L R ..B *.3.` l 7.A.` P. X2.q.>.,.>.b.b.[ Q m.3.m B 3.f.] @.W.>X          ",
"              ' 7.0.s.| 5 K T ^ r -.<.<.B ] m.M.` B c.V.3.H k.B.k.3.E N.y.Z m 7.w.x.X.~.:X          ",
"              #.2.3.e.| 0 T  .^ M 2.-.` N <.b.e.3.H 0.B.q.H >.w.B.:.A m.y.Z Z x.q.w.) E.            ",
"              ' ) :.7.| 5 U ^ ^ i 2.2.] i ) b.b.) ( w.B.q.F >.Z.c.:.A A.y.k m 9.9.5.` R.            ",
"              ' ) :.9.} 4 c T ^ z ] :.2.B ` w.j.( ` w.w.q.G >.V.e.9._ S.t.M l 2.w.j.` R.            ",
"              ~ :.5.m.X.5 c T ^ u.9.) x.7.w.q.-.c.0.0.:.k.q.w.;.3.w.<.n.X.Z Z 7.k.v.) E.            ",
"              ' ,.j.m.X.4 k b ^ ] -./ 7.) 2.-.( 3.( :.) :.;.>.( ( -.H X.K g A 9.c.c.<.E.            ",
"              ' 2.w.m.X.= j b ^ e D S Q e B ( ) d s =.;.F s =.:.=.( m O.I g l 9.c.b.] E.            ",
"              / 4.w.m.X.= j T o.Z 9.2.) a <.b.x.0.B q.C.>.H j.k.c.-.I S.p.x m 9.c.c.] E.            ",
"              #.,.w.x.1.w J b ^ v./ ` ) A -.b.w.-.B k.c.w.B q.B.c.:.B A.d.M Z 8.c.c.] E.            ",
"              #.3.j.m.1.w v b b O.7.9.G r ] B.j.-.H e.c.w.B 0.B.c.-.L A.p.Z N 7.x.c.] E.            ",
"              O.4.c.B.1.w U K ~ z 9.M.' a ( x.c.-.C j.k.w.B q.B.e.3.E m.a.K m 7.c.j.] E.            ",
"              ' 3.m.f.| 0 { { ^ e ) 9.7.3.] 2.b.-.H j.w.q.d q.B.w.3./ n.y.I m 8.c.c.] E.            ",
"              ' ,.j.s.Y 4 U ^ ^ u S ] 9.b.9.-.c.:.H k.w.q.B q.B.e.:.` i.1.P Z 9.c.x.] E.            ",
"              ' 5.w.9.Y < b n ^ i ' ] / 3.s.9.3.;.H e.w.w.B q.B.c.-.` 1.W P m 9.c.j.] E.            ",
"              / 5.w.e.W 6 n T o.i 2.2.C C 7.w.:.-.F k.k.w.F 0.B.c.-.W I k Z h s.c.c.] E.            ",
"              ~ ,.:.1.} 0 J b o.u ) 7.Q N ( 5.4.-.C k.k.w.d 0.B.j.-.E Z y h h w.x.x.] Q.            ",
"              / ,.4.7.L 5 U R _ u ' 2.) N [ 2.:.j.) ) M.c.a ,.C.w.<.A _ z e p h.j.v.O.~.            ",
"              / ,.h.9.E 5 K I _ p ' #.[ z O.8.4.4.4.h.h.,.C 9.b.x.6.I ' Q u p h.j.v.+.^.            ",
"              ! ,.j.j.W < J P _ u ' #.] d #.h.4.:.3.j.3.=.F k.c.m.2.E 2.' V d j.j.j.#.^.            ",
"              ~ ,.k.v._ 1 k P _ p [ 2.) p 2.j.j.] ! :.4.:.F q.V.j.1./ 9.:.Q Q k.j.b.O.Q.            ",
"              / ,.j.m._ 5 c I ] h ] 2.) a 2.x.j.:.B *.q.w.( >.V.f.-.( s.7.! d q.j.m.<.).            ",
"              / :.j.s.W < k P _ N -.2.` m 2.x.c.:.G 5.5.q.3.0.w.f.3.( m.9.! d >.3.q.` Q.            ",
"              ' [ h.i.Y = k K ~ N ] <.-.a 3.c.w.-.( c.;.3.0.3.>.e.;.*.B.h.! a 5.0.q.` Q.            ",
"              ' 4.j.x._ 2 K P _ m -.3.) a <.w.w.;.G c.3.3.*.;.3.>.*.G B.j.! d j.k.c.<._.            ",
"              #.,.j.n.+.- T R ~ N ) 2.-.m 3.m.b.3.F q.;.e.a >.q.;.G ( w.x.G B 5.w.c.<.W.            ",
"              ..h.v.i.@.- R ^ ~ a ` <.( s -.w.x.;.H q.G >.F >.*.B.0.3.x.s.E B -.E e.r.).            ",
"              6.#.l.g.@.& c T ..N 2.4.] N 3.b.b.5.( k.;.B.*.j.q.;.*.-.2.3.` / 7.0.B.r._.            ",
"              ..#.l.F.%.9 n { O.u ' ] / i <.x.w.-.H k.w.k.a >.V.e.0.2.6.2.I E 9.m.H.1.W.            ",
"              @.O.a.g.{ 9 v n R Z ) #.) V 9.j.h.2./ k.c.c.! q.C.q.-.<.8.$.Z A d.7.A.r.              ",
"              &.t.G.U.%.q v { p.[ 8.4.8.' h.j.8.9.2.j.,.w.4.k.,.e.9.9.n.u..._ z.A.J.a.              ",
"              X o * = O . X # 0 ^ / Q ' D ) Q Q ) / ) N ! ) -.d G _ E I A y % * % , @ a.            ",
"                Y.Y./.I.{.=X#X}.$X+X.X%XoX$X+X[.+XXX+XXXXXXX@XXX.X%X%XoX    '.K.W.  G.              ",
"                                    ,X,X,X,X,X,X,X,X,X,X,X,X                                        ",
"                                                                                                    "
};
