/* XPM */
static char *_7b69de27ab24b1a9b35b96afe1a8388hUEpYqbXBuf9Zj9N[] = {
/* columns rows colors chars-per-pixel */
"50 50 206 2 ",
"   c None",
".  c #0A0100",
"X  c #070100",
"o  c #140600",
"O  c #150B00",
"+  c #190C00",
"@  c #181000",
"#  c #251400",
"$  c #291A04",
"%  c #2F1C0B",
"&  c #2C2701",
"*  c #3B2C0B",
"=  c #352806",
"-  c #3D3109",
";  c #3C2E14",
":  c #3F3512",
">  c #3A3424",
",  c #43300F",
"<  c #422D12",
"1  c #463A1C",
"2  c #493716",
"3  c #4C3D22",
"4  c #483624",
"5  c #533F24",
"6  c #4D411B",
"7  c #5C4B1B",
"8  c #664B1E",
"9  c #64531F",
"0  c #494323",
"q  c #52442B",
"w  c #5B472F",
"e  c #594B26",
"r  c #5D512D",
"t  c #5D5629",
"y  c #5B4B37",
"u  c #595530",
"i  c #654E29",
"p  c #6C5424",
"a  c #6B5926",
"s  c #63542C",
"d  c #6D562D",
"f  c #665A2C",
"g  c #6D5C2C",
"h  c #715625",
"j  c #725B22",
"k  c #735C2C",
"l  c #7A5C2A",
"z  c #624E35",
"x  c #635332",
"c  c #6B5632",
"v  c #645A32",
"b  c #6A5A34",
"n  c #66593C",
"m  c #6D5D3D",
"M  c #67533C",
"N  c #735C34",
"B  c #7A5E30",
"V  c #745A39",
"C  c #6F652B",
"Z  c #776126",
"A  c #796324",
"S  c #72632D",
"D  c #71682D",
"F  c #7D642E",
"G  c #6B6234",
"H  c #6D623D",
"J  c #746533",
"K  c #7A6333",
"L  c #736B31",
"P  c #7C6A34",
"I  c #74633C",
"U  c #7B653C",
"Y  c #7D6C3C",
"T  c #77713F",
"R  c #5D5141",
"E  c #655746",
"W  c #695A45",
"Q  c #735F46",
"!  c #6C6045",
"~  c #726345",
"^  c #7B6644",
"/  c #776C43",
"(  c #7C6B43",
")  c #73634A",
"_  c #7B664C",
"`  c #7C6B4C",
"'  c #7E7342",
"]  c #6D6153",
"[  c #7A6651",
"{  c #7D6C53",
"}  c #7C7256",
"|  c #7F735D",
" . c #7F6F60",
".. c #80662E",
"X. c #846A2F",
"o. c #91762D",
"O. c #836536",
"+. c #826B34",
"@. c #81663A",
"#. c #826C3B",
"$. c #8A6D3A",
"%. c #85723D",
"&. c #8B733D",
"*. c #8E7A3F",
"=. c #877135",
"-. c #92753C",
";. c #917C39",
":. c #836D43",
">. c #836D4C",
",. c #896D45",
"<. c #857342",
"1. c #8B7543",
"2. c #867943",
"3. c #8C7945",
"4. c #83724C",
"5. c #8A754A",
"6. c #8D7B49",
"7. c #867849",
"8. c #927443",
"9. c #937C45",
"0. c #997D46",
"q. c #927C4B",
"w. c #9A7E4C",
"e. c #94774D",
"r. c #816D54",
"t. c #857451",
"y. c #8C7553",
"u. c #867A54",
"i. c #8C7A54",
"p. c #827559",
"a. c #89745C",
"s. c #8C7D5D",
"d. c #947C55",
"f. c #9A7F52",
"g. c #947D5A",
"h. c #987E59",
"j. c #907651",
"k. c #8E7D63",
"l. c #8C7B69",
"z. c #927F6B",
"x. c #9B813D",
"c. c #8F8049",
"v. c #9B8244",
"b. c #94834D",
"n. c #9C824B",
"m. c #9B864B",
"M. c #8E8252",
"N. c #8C835C",
"B. c #948351",
"V. c #9A8453",
"C. c #978851",
"Z. c #9C8B55",
"A. c #95825D",
"S. c #9B835B",
"D. c #9B8B5A",
"F. c #A1864F",
"G. c #A28740",
"H. c #A18555",
"J. c #A38C57",
"K. c #8E8065",
"L. c #948264",
"P. c #9B8664",
"I. c #9A8964",
"U. c #94846A",
"Y. c #96886D",
"T. c #9C8B6D",
"R. c #96876B",
"E. c #9D8E73",
"W. c #958671",
"Q. c #9F9174",
"!. c #A18760",
"~. c #AE926B",
"^. c #A29276",
"/. c #A5957B",
"(. c #AA967D",
"). c #AE997C",
"_. c #B49C7A",
"`. c #AFA67F",
"'. c #999081",
"]. c #AC9D82",
"[. c #BAA486",
"{. c #B3A381",
"}. c #BCB19B",
"|. c #BFB6AD",
" X c #C4B187",
".X c #C6BFAC",
"XX c #D1C9A5",
"oX c #DED2AA",
"OX c #CAC3B0",
"+X c #E6D9AF",
"@X c #E5D1AC",
"#X c #E4CFBC",
"$X c #EADCB5",
"%X c #E8D6B3",
"&X c #DED6CB",
"*X c #FFE8CC",
"=X c #F1EAD6",
"-X c #F5EEDB",
";X c #FDEDDF",
":X c #F9F3DD",
">X c #F7F0DD",
",X c #FDF5E3",
"<X c #FFF9E5",
"1X c #FFFEEB",
"2X c #F8F1EB",
"3X c #FFFDF5",
/* pixels */
"                                                                                                    ",
"                                                                                                    ",
"                                                                                                    ",
"                                                ! r 2 - * = ; 1 w w E                               ",
"                                          4 $ * s f L <.<.<.( :.i V Q e & & u                       ",
"                                    4 % 4 M Q >.A.D.Z.Z.b.3.q.d.~.!.e.5.u./ G e ,                   ",
"                              k.$ < M a.z.W.z.t.i.<.J a 7 7 i d c >.N.s.u.u.N.N.u.e 2 n             ",
"            J C.M.' ' G G ' f # 7 b a.U.z.l.z o = - 6 x I m m m 5 = o O 6 | R.u.L.A.6.x 1 {         ",
"    O / B.b.*.F.Z.c.M.2.M.T #.<.K s ~ ) 4 . y '.                        > X ; ~ g.h.O.f.5.2 q       ",
"    + ^ B.0.&.m.9.Y 2.T D.B.&.#.I u.3 # ] |.2X                              W o 2 h O.,.,.t.c $     ",
"    + _ h.f.-.V.S.5.v , I ^ K 6.( ( ) }.3X3X                                    2 ..$.O.e.h._ W     ",
"    o [ g.f.8.H.S.y.[.).t.V :.:.A.4.E.1X                                        c O.,...U :.(.      ",
"    o [ S.w.8.H.e.V *X<XP.d S.k Y ^ Q.1X                                        c N H.&.d {.        ",
"    + _ f.0.-.n.S.K _.[.y.k &.=.d.u.k.,X                                        i @.J.#.G           ",
"    + / b.;.o.G.n.3.#.d V.3.A =.V g.(.;X                                        t %.2.J v           ",
"    O / v.x.o.G.x.&.J.9.*.*.;.A e.Q /.,X                                        H f 2.D.t           ",
"    o ^ S.F.-.F.v.3.b.6.6.9.+.+.U g.E.<X                                        b J C.b.L           ",
"    + _ f.w.$.0.9.&.6.6.q.q.U P 5.t.U.-X                                        x J B.c.C           ",
"    + Q j.f.w.F.n.9.B.6.q.q.O.K :.t.E.1X                                        x S B.c.C           ",
"    o M V 8.8.F.9.1.q.1.6.6.#.#.:.i.Y.<X                                        x S C.C.D           ",
"    o w d B l ..#.$.3.1.1.b.6.S.j.u.n OX                                        x J Z.C.D           ",
"    + W :.$.l O.j 9 S a p g p k U ^ y OX                                        x J Z.B.D           ",
"    + r.S.S.8.n.0.1.3.<.:.%.K K N I } =X                                        r S Z.C.C           ",
"    o Q d.w.8.F.n.1.3.3.f.B.P K S.>.U.1X                                        r J Z.B.D           ",
"    o r.S.e.8.n.9.9.6.<.B.q.F #.D.c k.<X                                        H P D.Z.L           ",
"    o { S.e.8.0.n.1.q.3.q.3.U q.d.x l.<X                                        H P D.Z.L           ",
"    o _ f.e.8.0.V.%.q.b.6.1.1.n.,.b Y.<X                                        m J Z.Z.D           ",
"    o _ h.q.8.0.m.&.b.6.4.q.q.1.U ~ Q.<X                                        x D V.C.D           ",
"    o { f.8.8.w.n.1.B.3.:.V.0.K #._ /.,X                                        x S V.b.C           ",
"    o r.j.@.O.F.0.9.V.<.<.V.<.d ,.4./.:X                                        x J Z.C.D           ",
"    o r.j.h l n.b.9.q.<.6.q.K l 4.t./.:X                                        x L Z.b.D           ",
"    o r.5.8 p n.n.6.3.7.B.%.a #.<.4.Q.,X                                        r J D.B.J           ",
"    O ) ^ d a q.V.6.7.7.6.J 9 &.5.4.Q.,X                                        r J I.A.I           ",
"    O ) ` N k e.V.:.M.M.Y S C Y 6.` Q.:X                                        r J P.A.I           ",
"    O _ t.@.K S.D.#.B.i.J J Y #.5.>.Q.:X                                        s J I.L.Y $X        ",
"    @ _ j.,.$.H.V.1.6.' J Y P #.7.<.Q.:X                                        v J P.A./ $X        ",
"    + ` S.e.$.H.n.b.#.S 2.6.S =.5.<.Q.:X                                        i C A.g.I +X        ",
"    + ` S.w.8.n.0.m.L p b.n.h %.1.4.Q.>X                                        s g i.d.J +X        ",
"    + _ S.f.$.0.0.1.P S b.b.k #.5.:.Q.:X                                        f S d.S.Y $X        ",
"    + _ h.w.$.-.n.+.P #.9.9.O.+.5.<.Q.:X                                        f g i.g.U +X        ",
"    + r.f.0.0.-.n.j L =.V.q.h &.5./ ].=X                                        b J ( S.' oX        ",
"    o >.h.w.0.0.A j &.*.B.V.k K e.4./.-X                                        v L i.I./           ",
"    o r.h.f.0.;.Z P c.P <.B.O.:.U a.E.;X                                        r b I.^.m           ",
"    o r.h.w.&.X.Z *.Z.3.6.6.K K d.Y.W.2X                                        ! / Q.U.n           ",
"    o { S.1...j P %.c.6.B.D.B.P.y.r.E &X                                        0 G p.| }           ",
"    O r.g.3.+.Z Z.Z.Z.B.B.( d N k.r.r.                                            @ q E X           ",
"    o { i.1.+.L x.*.S f / D. X@X%X#X                                                                ",
"    . ! ` I K J t M.`.XX                                                                            ",
"      R 3 | ].                                                                                      ",
"                                                                                                    "
};
