/* XPM */
static char *_d8235c696834a32facf294e63759a1dXeD1Lnfu5ULNAQga[] = {
/* columns rows colors chars-per-pixel */
"50 50 219 2 ",
"   c None",
".  c #000001",
"X  c #00010C",
"o  c #0B0507",
"O  c #010212",
"+  c #02031A",
"@  c #040C1A",
"#  c #060D14",
"$  c #09161D",
"%  c #14191E",
"&  c #16161B",
"*  c #160000",
"=  c #3E1B00",
"-  c #231E1E",
";  c #2C0000",
":  c #392719",
">  c #37210D",
",  c #000E25",
"<  c #051626",
"1  c #131D25",
"2  c #181D28",
"3  c #1C242B",
"4  c #182329",
"5  c #0A2232",
"6  c #1D2A34",
"7  c #1E2A35",
"8  c #212326",
"9  c #23262C",
"0  c #25292D",
"q  c #292A2E",
"w  c #322B2C",
"e  c #362524",
"r  c #36312F",
"t  c #222631",
"y  c #232B34",
"u  c #2A2E34",
"i  c #252E38",
"p  c #2B2F38",
"a  c #372C33",
"s  c #2C3134",
"d  c #26313A",
"f  c #2C333C",
"g  c #263337",
"h  c #343133",
"j  c #3D3333",
"k  c #33363B",
"l  c #35393F",
"z  c #3C3639",
"x  c #531200",
"c  c #452B18",
"v  c #432D0C",
"b  c #74341F",
"n  c #453229",
"m  c #533928",
"M  c #433534",
"N  c #453C39",
"B  c #513B33",
"V  c #4B403D",
"C  c #594538",
"Z  c #59402A",
"A  c #62493C",
"S  c #2B3641",
"D  c #333A42",
"F  c #3B3E44",
"G  c #373641",
"H  c #483C45",
"J  c #3D424B",
"K  c #3F4145",
"L  c #3E4B58",
"P  c #464244",
"I  c #4B4244",
"U  c #48484C",
"Y  c #524544",
"T  c #5C4A43",
"R  c #544B4B",
"E  c #5B4E4B",
"W  c #584745",
"Q  c #454951",
"!  c #4C4D53",
"~  c #4F4754",
"^  c #554D50",
"/  c #5A4D51",
"(  c #555253",
")  c #5C5354",
"_  c #5C5659",
"`  c #58585C",
"'  c #565253",
"]  c #694947",
"[  c #66524A",
"{  c #635654",
"}  c #6C5B54",
"|  c #635C5C",
" . c #6B5C5B",
".. c #655754",
"X. c #765A52",
"o. c #71474C",
"O. c #68615C",
"+. c #75655D",
"@. c #7C675C",
"#. c #5C5D62",
"$. c #675D64",
"%. c #5E6065",
"&. c #646165",
"*. c #6B6264",
"=. c #65646A",
"-. c #6D656D",
";. c #6C696C",
":. c #686B66",
">. c #786965",
",. c #7D726C",
"<. c #77716C",
"1. c #6B6C72",
"2. c #736D74",
"3. c #786974",
"4. c #6E7174",
"5. c #6D7279",
"6. c #737173",
"7. c #7C7374",
"8. c #7C7B7B",
"9. c #77767A",
"0. c #92341F",
"q. c #855B55",
"w. c #836A5C",
"e. c #846D64",
"r. c #84736A",
"t. c #8C7366",
"y. c #94756A",
"u. c #8A7B74",
"i. c #867774",
"p. c #937D74",
"a. c #947E76",
"s. c #94837C",
"d. c #988578",
"f. c #88807D",
"g. c #A48879",
"h. c #787981",
"j. c #837F84",
"k. c #7E8188",
"l. c #8C8C8D",
"z. c #8B8685",
"x. c #938582",
"c. c #988B85",
"v. c #9A9089",
"b. c #8A8D95",
"n. c #9F9A96",
"m. c #979698",
"M. c #919092",
"N. c #AB958C",
"B. c #A99388",
"V. c #B49888",
"C. c #A49B94",
"Z. c #A19D9D",
"A. c #AB9C96",
"S. c #B29C93",
"D. c #B39F98",
"F. c #A08C82",
"G. c #A2A19D",
"H. c #ACA29B",
"J. c #AEA99F",
"K. c #BAA59A",
"L. c #999BA3",
"P. c #A19FA5",
"I. c #9FA1A5",
"U. c #A4A1A4",
"Y. c #A3A4AB",
"T. c #AAA9A8",
"R. c #B8ADA8",
"E. c #BBB3AE",
"W. c #ACACB4",
"Q. c #ACADB8",
"!. c #AAA7B1",
"~. c #B2ADB3",
"^. c #AEB1BE",
"/. c #B2B3B6",
"(. c #B9B7BA",
"). c #C7AB99",
"_. c #C4A08E",
"`. c #C6B4A9",
"'. c #C7BAB4",
"]. c #C7AFA3",
"[. c #CEC2BB",
"{. c #B7B9C3",
"}. c #BABBC5",
"|. c #BCBEC9",
" X c #B9B7C0",
".X c #C0BFCA",
"XX c #BEC2C8",
"oX c #C6C6C7",
"OX c #D3CAC7",
"+X c #C4C6D1",
"@X c #C6C8D4",
"#X c #CACCD5",
"$X c #CBCDDA",
"%X c #CFD0D6",
"&X c #D4D5DB",
"*X c #DBDBDD",
"=X c #D6D7D6",
"-X c #D3D1CE",
";X c #E2DEDF",
":X c #D4D5E2",
">X c #DBDBE3",
",X c #DDDDEA",
"<X c #E0DFE2",
"1X c #DDE0E8",
"2X c #E3E3E5",
"3X c #E3E4ED",
"4X c #EBEBED",
"5X c #E6EAEE",
"6X c #E4E5F3",
"7X c #E6E8F6",
"8X c #EBEDF5",
"9X c #ECEDFA",
"0X c #E8E7F4",
"qX c #F0EFF6",
"wX c #EFF1F9",
"eX c #F2F2F6",
"rX c #F4F5FB",
"tX c #FCFCFD",
"yX c #F8F7FC",
/* pixels */
"                                                                                                    ",
"                                                    3.$.                                            ",
"                                        u.j.x.2.3.*.3.-.j.$.H                                       ",
"                                     . .*.7.2.2.9.9.2.` ~ $.H /                                     ",
"                                  { U / ^ ` &.=.1.6.#.I $.R *./                                     ",
"                                q. .P H _ ( &._ ( | _ / H w _ M                                     ",
"                                y.a.3./ ) E x.c.) U / H a z Y * 3.                                  ",
"                                X./ ) H U P >.].x...r. .W C ..e (                                   ",
"                              o.R R a z I I y.].).A.B.y.g.a.>.} E ~.                                ",
"                              o.w &.$.3.i.d.).)._._.V.d.).V.y.X.X.m.                                ",
"                              H G ^ u.D.K.E.`.].V.g.D.y.V.N.r.B B w 4.                              ",
"                              } ^ _ u.D.S.x.V.`.S.g.V.@.Y M M j M E . K                             ",
"                              $.$.*.7.i.| N u.[.`.V.t.B . I 3.: [ +.i $ !                           ",
"                            O $.3.*.-.$.( *.:.R.[.g.w.r.C.R.i.C t.R 4 l $                           ",
"                          o . J 9.i.^ P H 1.P.R.'.).c.A.OX'.@.y.} 4 s h 4                           ",
"                          X k % Q l.P.M.z.~.3XOX].OX`.C.R.p.t.+.6 s s f X k.                        ",
"                        X 6 y u O U m.oX=XwXeX;XOX'.N.e.w.e.D.M.@ k s i f . ;.                      ",
"                      . O f y y p X . =./.2XeX8X4XR.X.@.u.P.Y.2.1 k s s s < !                       ",
"                      , f 6 7 y y f u . #.M.m.~.(.H.s.c.P.h.% . 0 u s q q k O                       ",
"                    . S f y 7 7 i 7 f f G ! . . 8 O.| ` ! . . u 3 u s u y u O O.                    ",
"                    X J d i 7 y y y y i t G q < 1 3 , . . u u . 8 0 s s 9 8 g q                     ",
"                  . , S S y y y y y i p 3 #.k 9 k . G #.p . . 2.# 3 8 0 8 3 s . 6.                  ",
"                  X 5 f d d t y y i i t 2 b.Q 7 . =.+X+X}.m.=./.| . 0 9 % . # X :.                  ",
"                  O 6 i i i 9 6 t t t 9 p Q.h.X 9.+X,X,X3X*X:X>X(.& & s G.~.:.4 . 4.                ",
"                  @ 7 d i i y 9 u 0 t t F }.{./.,X6X9X6X3X6X7XrXeXz.. $ oX4X-XQ . 6.                ",
"                  @ 6 d i d 0 9 y t u t Q +X>X3X6X6XwXQ.:XrXrXyXtX*Xh . n.=XoX9.4 U                 ",
"                  @ 5 f d i i 3 0 u S t ! >X3X6X6X6XwX3X6XrXyXtXtXtXT.. . 8.T.l.) O.                ",
"                  + 5 S i y i 6 9 i D S Q ,X9X7X9X7XrXtXrXyXtXyXtXtX2X. s :.~.u } @.oX              ",
"                    , f d d y y 0 p 2 O f :X9X6X9X7XrXtXrXtXyXyXyXtXtXi.. % l.U E @.[.              ",
"                    , D d i i y t @ 5.h.. $X9X7X9X9XrXtXyXyXtXtXtXtXtXU.. P ! k @.r.[.              ",
"                    S S d 6 y f l . Y.XX. }.wX7X9XwXyXtXtXtXtXtXtXtXeXZ.. % . $ >.[ f.              ",
"                    ` d g f D 6 < X 1.5.. L.9X8XwXwXyXtX2X*XtXtXtXtX=XZ.q & u s C = G.              ",
"                    L + D , . y J J K . 1 5.*X5XeXyXtXtX=X#X8X&X.X}.W.U.z o % r = i.                ",
"                    ` , g %.W.oX(.l.J l g J #X5X5XwXeXqX6X>X>X+XY.Y.Y.m.k X 3 V C =X                ",
"                    ..k @ T.5X<XOXJ.6 f k . (.2X*X>X*X1X,X:X$XXXQ.Y.L.M.q . V C +.                  ",
"                  | { P . n.2X=XE.n.K y l . b.&X%X%X%X:X:X@X@X#X{.Q.!.8.. r } Z s.                  ",
"                  W O.E X 1.2X-XG.n.U 4 f 1 ` XX+X+X+X#X$X+X@X:X|.Q.x.n & T Z +.                    ",
"                *.M ) ) z O G.OXE.z.4 y g 4 L Y.Q.^.^.}.XXm.{.@X!.i.C e > m O.`.                    ",
"                6.j R Y j N . &.4.3 6 u q 3 U G.U./.(.XXXX|.{.U.u.} c [ ,.T.                        ",
"                V I R V M ,.8.. 5 6 y 6 u 3 s E.R.T.R.v.C.n.c.+.[ T x.                              ",
"              2.N E Y E N f.  v.R w k i 6 u X v.H.H.E.C.H.c.[ T [ l.                                ",
"              ,._ *.( _ :       S.C.+.[ R ..O.,.B.x.B.c.} ..,.u.                                    ",
"              M _ _ { V ..          R.B.d.d.d.d.s.7.c C +._                                         ",
"            P o r N R ; I               K.B.d.s.O.C ,.                                              ",
"            . j w j P :                   E.s.c [                                                   ",
"          # o r w j j C                   0.b x                                                     ",
"          & o - w j : C                                                                             ",
"          . w N M W v                                                                               ",
"                e ; A                                                                               ",
"                                                                                                    "
};
