/* XPM */
static char *_5343452f6dd4c16ad7022a8eff04522x5wS2Mn2tr6GD26r[] = {
/* columns rows colors chars-per-pixel */
"50 50 222 2 ",
"   c None",
".  c #000001",
"X  c #00010C",
"o  c #0B0507",
"O  c #000213",
"+  c #02031A",
"@  c #040C1A",
"#  c #060C14",
"$  c #09161D",
"%  c #14191E",
"&  c #16171B",
"*  c #160000",
"=  c #3E1B00",
"-  c #231E1E",
";  c #2C0000",
":  c #392719",
">  c #37210D",
",  c #000E25",
"<  c #0B1624",
"1  c #001528",
"2  c #131D25",
"3  c #181D28",
"4  c #1C242B",
"5  c #182329",
"6  c #0A2232",
"7  c #1D2A34",
"8  c #1E2A35",
"9  c #212326",
"0  c #23262C",
"q  c #25292D",
"w  c #292A2E",
"e  c #322B2C",
"r  c #372524",
"t  c #36312F",
"y  c #222631",
"u  c #232B34",
"i  c #2A2E34",
"p  c #252E38",
"a  c #2B2F38",
"s  c #372C33",
"d  c #2C3134",
"f  c #26313A",
"g  c #2C333C",
"h  c #263337",
"j  c #343133",
"k  c #3D3333",
"l  c #33363B",
"z  c #35393F",
"x  c #3C3639",
"c  c #531100",
"v  c #452B18",
"b  c #432D0C",
"n  c #75341E",
"m  c #453229",
"M  c #533928",
"N  c #433534",
"B  c #453C39",
"V  c #513B33",
"C  c #4B403D",
"Z  c #594538",
"A  c #59402A",
"S  c #62493C",
"D  c #2B3641",
"F  c #333A42",
"G  c #3B3E44",
"H  c #373641",
"J  c #483C45",
"K  c #3D424B",
"L  c #3F4145",
"P  c #3E4B57",
"I  c #464244",
"U  c #4B4244",
"Y  c #48484C",
"T  c #514544",
"R  c #5C4A43",
"E  c #544B4B",
"W  c #5B4E4B",
"Q  c #584746",
"!  c #454951",
"~  c #4C4D53",
"^  c #4F4754",
"/  c #554D50",
"(  c #5A4D51",
")  c #555253",
"_  c #5C5354",
"`  c #5C5659",
"'  c #58585C",
"]  c #565253",
"[  c #694947",
"{  c #65534C",
"}  c #675248",
"|  c #635654",
" . c #6C5B54",
".. c #625D5C",
"X. c #6C5C5C",
"o. c #655754",
"O. c #765A52",
"+. c #72474B",
"@. c #75655D",
"#. c #7B675C",
"$. c #6E625C",
"%. c #5C5D62",
"&. c #5F5E68",
"*. c #665D64",
"=. c #5E6065",
"-. c #646165",
";. c #6B6263",
":. c #65646A",
">. c #6C646C",
",. c #6C696C",
"<. c #686B66",
"1. c #796966",
"2. c #7C736C",
"3. c #6B6C72",
"4. c #736E74",
"5. c #766976",
"6. c #6E7174",
"7. c #6D7279",
"8. c #747173",
"9. c #7C7374",
"0. c #7C7B7B",
"q. c #77767A",
"w. c #923320",
"e. c #855B55",
"r. c #836A5C",
"t. c #846D64",
"y. c #8E7265",
"u. c #84736A",
"i. c #887469",
"p. c #94756A",
"a. c #8A7B74",
"s. c #867774",
"d. c #947D75",
"f. c #938075",
"g. c #94837C",
"h. c #998679",
"j. c #88807D",
"k. c #A48879",
"l. c #787981",
"z. c #807E80",
"x. c #7E8188",
"c. c #8C8C8D",
"v. c #8A8586",
"b. c #938582",
"n. c #988B85",
"m. c #9A9089",
"M. c #8A8D95",
"N. c #9F9A96",
"B. c #979698",
"V. c #919092",
"C. c #AB958C",
"Z. c #A99388",
"A. c #B49888",
"S. c #A49B94",
"D. c #A19D9D",
"F. c #AB9C96",
"G. c #B29C93",
"H. c #B39F98",
"J. c #A08C82",
"K. c #A2A19D",
"L. c #ACA29B",
"P. c #AEA99F",
"I. c #BAA59A",
"U. c #999BA3",
"Y. c #A19FA5",
"T. c #9FA1A5",
"R. c #A4A1A4",
"E. c #A3A4AB",
"W. c #ABA9A8",
"Q. c #B8ADA8",
"!. c #BBB3AE",
"~. c #ACACB4",
"^. c #ACADB8",
"/. c #AAA7B1",
"(. c #B2AEB3",
"). c #AEB1BE",
"_. c #B2B3B6",
"`. c #B9B7BA",
"'. c #C7AB99",
"]. c #C4A08E",
"[. c #C6B4A9",
"{. c #C7BAB4",
"}. c #C7AFA3",
"|. c #CEC2BB",
" X c #B7B9C3",
".X c #BABBC5",
"XX c #BCBEC9",
"oX c #B9B7C0",
"OX c #C0BFCA",
"+X c #BEC2C8",
"@X c #C6C6C7",
"#X c #D3CAC7",
"$X c #C4C6D1",
"%X c #C6C8D4",
"&X c #CACCD5",
"*X c #CBCDDA",
"=X c #CFD0D6",
"-X c #D4D5DB",
";X c #DBDBDD",
":X c #D6D6D6",
">X c #D3D1CE",
",X c #E2DEDF",
"<X c #D4D5E2",
"1X c #DBDBE3",
"2X c #DDDDEA",
"3X c #E0DFE2",
"4X c #DDE0E8",
"5X c #E3E3E5",
"6X c #E3E4ED",
"7X c #EBEBED",
"8X c #E6EAEE",
"9X c #E4E5F3",
"0X c #E6E8F6",
"qX c #EBEDF5",
"wX c #ECEDFA",
"eX c #E8E7F4",
"rX c #F0EFF6",
"tX c #EFF1F9",
"yX c #F2F2F6",
"uX c #F4F5FB",
"iX c #FCFCFD",
"pX c #F8F7FC",
/* pixels */
"                                                                                                    ",
"                                            *.l.                                                    ",
"                                      J >.z.,.>.>.>.7.b.d.d.                                        ",
"                                    Q T %.^ ` q.l.q.5.4.q.*.X.*.                                    ",
"                                    ( ;./ ' I ` 4.3.>.-.' / ( Y (                                   ",
"                                    N | e J ( ` *.) ` -.' ` J J X.e.                                ",
"                                  5.* T k j U ( Y _ h.b._ ) E 2.d.p.                                ",
"                                  ' r o.Z Q X.u.| b.}.1.I I I _ W *.                                ",
"                                (.W  .@.d.k.p.A.G.I.}.y.J U x s ^ / +.                              ",
"                                B. .O.p.A.'.h.Z.].].'.'.J.u.1.*.*.s +.                              ",
"                              6.r V V i.C.A.d.I.k.A.'.[.[.I.H.s./ H Q                               ",
"                            L X { N k N N T #.A.k.G.[.G.b.H.H.z.( E X.                              ",
"                          ~ $ h  .O.: ,.J . V y.k.}.|.a.B X.9.9.>.*.$.                              ",
"                          $ F 2 Q i.S s.Q.N.u.r.k.|.Q.<.<.) *.,.*.9.*.O                             ",
"                          5 j d 5  .y.#.{.#XH.J.'.{.Q.R.5.J Y E 0.q.Y . o                           ",
"                        x.X g d h y @.y.d.Q.S.[.#X[.#XeX(.z.V.Y.c.Y < l X                           ",
"                      ,.. g i i l @ V.L.t.r.t.C.[.#X,XyXrX:X@XB.Y O i u 7 X                         ",
"                      ~ < d d a l 2 7.T.E.a.r.O.}.7XrXyX5X_.<.. X a u u f O .                       ",
"                      O l y w h i w . % l.Y.n.d.Y.`.(.B.V.%.. a D u u u y g ,                       ",
"                    ..O d i i d i 4 i . . ! %.%.*.0 . . ~ H g f 8 u 8 8 p p D .                     ",
"                    i i 9 q d d 0 4 . w i . . + 4 < % y H u p 8 u u u 8 p p K O                     ",
"                  8.. d 4 4 0 9 & & 7.. . j =.G . l 0 l &.5 p p u u u u u D D , .                   ",
"                  <.X @ o % 0 q . ` _.:.B..X$X$X:.. 8 ! V.3 u p u u u 8 f f f 6 X                   ",
"                7.. 5 <.W.K.d & & `.1X1X1X2X2X2X$Xq.. l.^.a 3 u u y y y p p f 7 #                   ",
"                6.. Y :X7X@X% . v.yXuX0X8X9X9XwX9X2X_.oXXXF 0 w 0 y w y p p f 7 @                   ",
"                I 5 q.@X:XB.. d :XiXuXuXuX<X^.tX0X0X6X1X$X! y i u u 0 q h p p 7 @                   ",
"                X._ c.W.0.. . W.iXiXiXpXuX0X6XtX0X0X6X9X<X' 8 a u w 4 p p f f 6 +                   ",
"              @X#. .i _.<.d . ,XiXiXiXpXpXtXiXuX0X0X0XwX2X! D H p q q p 8 h D 6 +                   ",
"              |.#.W Y c.% . s.iXiXiXiXiXiXpXiXuX0XwX0XwX<Xp + 3 f q y p p f g ,                     ",
"              `.i.#.z ~ I . R.iXiXiXiXiXiXiXiXuXwXwX0XwX*X. l.3.@ w 7 h p p F 1                     ",
"              j.[ #.$ . % . D.yXiXiXiXiXiXiXiXuXwXtX0XtX X. +XE.. F f p p f F D                     ",
"              K.b T w w & q Y.:XyXiXiXiX;X5XiXuXtXwXqXtXU.. 7.7.. < 7 F g f p '                     ",
"                s.= t & o l K._..XXX<XwX&X:XiXiXuXyX7X1X7.< . I K K p . , F O P                     ",
"                :XZ C - X l B.E.E.E.%X1X2X6XrXuXrX7X5X&XG h F K c.`.@X(.=.h , '                     ",
"                  1.Z B . w V.T.E.^.@X&X-X2X2X1X;X;X5XoX. z f 7 P.#X;X8X~.@ l o.                    ",
"                  b.A  .t . z.E./. X&X%X%X<X<X=X=X=X-XM.. F u L N.!.:X5XN.. I o...                  ",
"                    #.M R - m v.^.XX<X$X$X*X&X%X$X$XXX' 2 g 4 ! N.K.>X,X<.X ] o.R                   ",
"                    [.$.M > : Z s./.%X XB.+X.X).).^.E.! 4 h u 5 j.!.>XK.O x | | N :.                ",
"                        W.2.} v  .a.R. XXX+X+X`.~.R.K.Y 4 i y 8 4 6.=.. B N T Y k 2.                ",
"                              b.R } @.m.N.S.m.Q.W.Q.!.d 0 u u h h 6 . 0.2.N C E U B                 ",
"                                c.{ R } n.L.S.!.L.L.m.X h 4 h l t E m.  a.B W T ( B ,.              ",
"                                    0.2.}  .g.m.g.Z.2.<.o.W W #.m.L.      : | _ *...9.              ",
"                                        ..@.R v u.g.h.h.h.h.Z.!.          o.C ..` | N               ",
"                                              2.Z $.f.f.Z.I.              U * E B t o I             ",
"                                                  } v g.!.                  > U N w j .             ",
"                                                    c n w.                  Q k k e k . #           ",
"                                                                            Z > k e - o -           ",
"                                                                              b Q B B r .           ",
"                                                                              S ; m                 ",
"                                                                                                    "
};
