/* XPM */
static char *f53d72414ba54a6bc44aae98169beb7eAlLE3eKkJ51cy5UK[] = {
/* columns rows colors chars-per-pixel */
"50 50 252 2 ",
"   c #060001",
".  c #0A0000",
"X  c #09030A",
"o  c #160708",
"O  c #1C1115",
"+  c #241A1C",
"@  c #382927",
"#  c #382C34",
"$  c #2F3432",
"%  c #2E201D",
"&  c #453839",
"*  c #49332C",
"=  c #33423D",
"-  c #7B512D",
";  c #493D41",
":  c #374747",
">  c #3C5659",
",  c #3A4267",
"<  c #306064",
"1  c #4B4547",
"2  c #55474A",
"3  c #594D54",
"4  c #49595B",
"5  c #5C555A",
"6  c #444C53",
"7  c #645859",
"8  c #6B5550",
"9  c #6D615D",
"0  c #4B556D",
"q  c #685C62",
"w  c #615D74",
"e  c #536D71",
"r  c #6B6467",
"t  c #75696B",
"y  c #796C72",
"u  c #7C7375",
"i  c #687073",
"p  c #53625B",
"a  c #895A35",
"s  c #8E5223",
"d  c #9A6629",
"f  c #966538",
"g  c #8F623B",
"h  c #B37530",
"j  c #885D43",
"k  c #986848",
"l  c #997456",
"z  c #946D51",
"x  c #A47A58",
"c  c #B37A46",
"v  c #827475",
"b  c #86797A",
"n  c #947C79",
"m  c #937A6B",
"M  c #71817D",
"N  c #5E817D",
"B  c #D3852B",
"V  c #B38258",
"C  c #97837D",
"Z  c #8A817F",
"A  c #B48A69",
"S  c #AD8A78",
"D  c #B58D74",
"F  c #B9937C",
"G  c #B38B6C",
"H  c #C58241",
"J  c #C89868",
"K  c #C99A73",
"L  c #D4AA7E",
"P  c #545D84",
"I  c #696C87",
"U  c #77748C",
"Y  c #777797",
"T  c #6C7393",
"R  c #8A7C84",
"E  c #837C92",
"W  c #6E8586",
"Q  c #7A8C8D",
"!  c #7A83A6",
"~  c #77A8AD",
"^  c #8D8384",
"/  c #878788",
"(  c #938284",
")  c #9D8C8B",
"_  c #96878B",
"`  c #878898",
"'  c #978C95",
"]  c #99979A",
"[  c #8B9692",
"{  c #A58C86",
"}  c #B69788",
"|  c #A29494",
" . c #A4959C",
".. c #A59A9A",
"X. c #AC9C9D",
"o. c #AA9997",
"O. c #B59C98",
"+. c #AA928A",
"@. c #9CA59D",
"#. c #B9A49A",
"$. c #A9A39C",
"%. c #8588A8",
"&. c #928DA5",
"*. c #9899A8",
"=. c #9798B8",
"-. c #8692AC",
";. c #A89AA3",
":. c #AB9DAB",
">. c #8CA6A8",
",. c #99A5A5",
"<. c #99B6B8",
"1. c #96AFB4",
"2. c #ADA3A3",
"3. c #A9A6AB",
"4. c #B3A3A4",
"5. c #B2A5AB",
"6. c #B4ABAC",
"7. c #BCACAC",
"8. c #BBA7A6",
"9. c #A8A6B8",
"0. c #B3ABB3",
"q. c #BBADB3",
"w. c #B6A8B6",
"e. c #A6B5B9",
"r. c #BBB2B3",
"t. c #BDB4BB",
"y. c #B6B7B7",
"u. c #B3B6AE",
"i. c #C8A489",
"p. c #D7A988",
"a. c #C6A699",
"s. c #D4AC94",
"d. c #D5B49B",
"f. c #D3B18D",
"g. c #E9BD8F",
"h. c #C2ACAB",
"j. c #C7ACA5",
"k. c #CAB2AC",
"l. c #D8B8A7",
"z. c #C2AEB4",
"x. c #C3B3B4",
"c. c #CAB4B4",
"v. c #C3B6BA",
"b. c #C5BBBC",
"n. c #CCBBBC",
"m. c #CAB9B7",
"M. c #D4BBB4",
"N. c #D3BCBC",
"B. c #D4B8B6",
"V. c #D1AFA5",
"C. c #E4BAA5",
"Z. c #C99C85",
"A. c #B7C3B5",
"S. c #C7C1BC",
"D. c #D4C2BC",
"F. c #DCC1BE",
"G. c #DBC4B6",
"H. c #E9C5AA",
"J. c #E6C8B9",
"K. c #F3D4B9",
"L. c #F1CFB7",
"P. c #FFE3BA",
"I. c #F3C39B",
"U. c #929DC3",
"Y. c #97AFCA",
"T. c #A9AAC6",
"R. c #B8B6C6",
"E. c #B6BBD7",
"W. c #B0B3CA",
"Q. c #CDBDC3",
"!. c #C4BAC7",
"~. c #D3BEC2",
"^. c #D9BFC0",
"/. c #C3BDD3",
"(. c #BDD6DC",
"). c #B6C6CB",
"_. c #BCC9E6",
"`. c #CDC2C5",
"'. c #CDC3CB",
"]. c #CCCACC",
"[. c #C5C6C8",
"{. c #D4C3C5",
"}. c #DAC4C4",
"|. c #D3C4CA",
" X c #D4CBCC",
".X c #DCCBCC",
"XX c #DAC9C6",
"oX c #CAC9D7",
"OX c #D4CBD2",
"+X c #DBCDD3",
"@X c #D5C9D8",
"#X c #C9D3D6",
"$X c #D3D2D3",
"%X c #DCD2D5",
"&X c #D4D3DC",
"*X c #DDD3DB",
"=X c #DDDBDC",
"-X c #D4DAD9",
";X c #D0D2CF",
":X c #E4CBC4",
">X c #E3CDCB",
",X c #E8CBC6",
"<X c #EAD3CB",
"1X c #E6D3C8",
"2X c #F6D8C8",
"3X c #E2CDD3",
"4X c #E3D3D4",
"5X c #EBD6D3",
"6X c #E3D4DB",
"7X c #E4DADC",
"8X c #EBDBDC",
"9X c #EAD8D6",
"0X c #F3DBD7",
"qX c #E5E1DC",
"wX c #FCE3D3",
"eX c #F7E2DA",
"rX c #F7E2CF",
"tX c #C8CAE4",
"yX c #D6CEE4",
"uX c #CBD3E6",
"iX c #DBD4E3",
"pX c #D8D8E7",
"aX c #D6D9F3",
"sX c #C7D7F5",
"dX c #E4DCE3",
"fX c #EBDDE3",
"gX c #E5D9E8",
"hX c #F2DEE1",
"jX c #E0DDF2",
"kX c #DAE4E8",
"lX c #DAE6F5",
"zX c #CAE8F1",
"xX c #ECE3E4",
"cX c #E4E3EA",
"vX c #ECE3EB",
"bX c #E5EBEC",
"nX c #ECEBED",
"mX c #E4E3E3",
"MX c #F2E3E4",
"NX c #FBE5E2",
"BX c #F3E5EB",
"VX c #F4EAEC",
"CX c #FAEBE9",
"ZX c #FAF2EB",
"AX c #E9E9F6",
"SX c #F3EBF2",
"DX c #F9ECF3",
"FX c #EBF2FA",
"GX c #FDF4F4",
"HX c #F5F5FD",
"JX c #F9F4F8",
"KX c #CAE0DE",
/* pixels */
" ._  .X q @X .' !.4 9.pXE.aX&.( hX8X0X.X5.yXgXaX~ < oXiXyX/.c.3X2XrXnXu ].CX1XZXx./ xXZ 7.GX_   8X{.",
"w.w.R R @X'   X ).E.oX9.E yX5 . n.O.+.0XgXw.E aX<., iX/.E yXDXC.S rX2.  6.ZXa.j.eXJX;X  + | ZX..5X9X",
"' ;.w.6XoX    # t.*.tX*.Y tXE . R M.f k ^.E , E.aX9.AX=.T @XC.A i.rX&   x.MXl.V.j.h.qX5 +   4XCXF.M.",
"c.N.Q.z.] X 3 !.;.  W.W.=.yXz.. & J.K x Q./.E tX&XgXpXT.=.SXs.J L.D.  2 eXeXa.eXh.o fXxXt & n.:XS C.",
"A A B.3XQ.Q.@X@X@X9.@XpX>Xj.c.{ >X8X<X5X6XfXjXgX@Xt.fXyXAX6X}.:X5X5Xc.j.K.K.eX8XBX4X;X7X4X9X{.2Xp.J ",
"d f } c.w.Q.t ; ' AX*.] G.l S <X| t +X2 ; t ~..Xy . Q.fXw.. X ;.{.. ~.0Xi.H.qXW [.xX; 2 7 >X8XL.g.H ",
"h d S ^.~.@ .   o yXe : J.F z M.X . +X7 X . z.dX.   6.JX1 . . t.3.. 2.rXV P.A.e ,. X  o . v 8XwXJ H ",
"d d i.B.z.!.1   b SX~ >.1Xz Z.:Xv v >X9 y *.fX@X;.3 7XfX8XR ( h.4Xy %XrX} d.bX1.;XJX6./ r.DXXX1XL H ",
"A S M.D.N.3X6X3X*XOXaXpX3X8.~.{ ,X,XC.l.^.HXjXjXgXxXMX8XeXeX2XH.9XCX6.$.5X9XAXFX$X6.xXGX6Xn.5X,XC.x ",
"J.G.~.8.:.# y gXw.  @Xw.&.yX!.. 2 ,Xn a }.@XY _.lXnXqXm.O.L.Z.j H.D.  ; CX%X&.sX9.  7Xy.. X c.,X2XV.",
"z.x.h.|.Q..   r +X' tX%.Y aXE . n C.k x 8X:.T sXzX<.JXS.#.H.C.} l 2X7   u.yX%._.HX=X].  + 8 eX0X^.3X",
"z.~.Q.b 6X]     &XtXpX=.%.uX3 . c.a.} 2XvXtXE.lXY.Q -XeXM.0XeX:X} wX2.  ..AX=.aXlXbX X  & x.c.o 5X0X",
";.E OX. 7 dX .' uXe W.oX!.@X_ v 3X3X3X!.W.zXkXlX).[ -X4XCX Xe.-XFXvXgX5.Q.dXcXFXe.1.FX`.XX4X. & hXR ",
"7 X '.2 .  .fXgX(.> *.'.6XQ.n.3XW.E yX;.e (.b 7 uXkX=X  [.).Q (.tXY pXSXfXBXVX=X>.>.bX7X6X4.. t 5X; ",
"1   v._ . r ;.q lX9.].gX;.' n./.T P /.R.Q AX2.b mXy.%Xq +XoX[ zX_.%.T.AXt.3 `.SX-XbXqX  v.v   b.gX# ",
"7   q.n.. ;.!.6 aXSX*X'.;   7.vXU.U.jX].cXpX+X4X^   r.7XdXAXSXcXaXT.tXHX/   u *XHXcXqX' mX;X_ JX6Xo ",
"y . v.v.'.OXoXlXE.Y !..X@ . X.+XHXAX:.y cXo t BXt   v.CX  / nX3 t.HXHXFXu.  ..JX).T '.FX(.kXGXXXD.y ",
"]. X!.+ OX9.p uXU.P T.+XX.( 4X%X3.#X3.r |..    XZ . n.4.  7 *Xo $X[.3.bXvXu.mXcXE.I 9.OX4 [ A.. D.GX",
"#XR.w.; !.` 6 (.E.%.gXCX8X+X+Xy.> >.cX.X8Xy   q.v.  OXb   0.xXdXbXi i #XcXVXnXZXHXy.4.S.p ]  X) qXnX",
"~ : 3.oXiXuX3.iX*X.X!.y +X+X].uXe ).`.r 4Xv.. 7.MX_ BX3   nXOX_ bX@.>.FX&XAX[.# `.ZXJ.a.A.S.dXJXnX[ ",
"*.> 9.W.-.tXhXB.{ ,X7 X './.T sX#XkXu . & 7XN.z.6XfX+X;.vX].    6.BXcXpX! AX).. b <XA K H.S.T.tXFX,.",
").3.tX&.T /.c.j } c..   |./.0 _.2.S.6.    ..hX4XN.5X{.MXVX3     |.q.'.oX-.tX{.. . J.p.c s.c.=.U.HX=X",
"/.gX/.:.&.fXj.S k.{ . b eX`.] bX3 r CXq.2 R 4X^.hX2XGX{.{.5 5 `.7X. | mX9.cXG.* @ D.K.s.J.:XR.W.cXVX",
"~.:.yXyXgXQ.>X<X3X+XX.c.V.:X;XqX%X+X+XfXGX8X4X0X} k l.ZX9XVX8X4X4X7X-XcXAXeXK.- 1XeXwXJ.V.F.hXgXVX4X",
"y . :.@Xq.  . ;.5.O |.,Xz H.A.M nXt.  X ;.5X.X2Xs s k 2X:X6X( + 1 -X#X~ -XG.L g.G.  n.#.. 8.~.5X6X+ ",
"2 . R hX2     5.v   z.G.k P.C $  X]       !.hXl.d h f 2XNX .  . . A.).W ;XrXL rX#.  X.q.. 2 ) MXq.. ",
"5.q z.~.+XR R  .7._ 3XG.x H.G.@.xX Xt u 8XBXn.2Xk s Z.,XO.ZX7.y b qXlXy.nXJ.l.K.4X/ >X7._ b 4X4X3Xo ",
"'.gX~.q.3X8X<XV.:X0Xb O.H.J.qXbXr.7.MXDX|.Q.fX<XC.p.2XB.8.XX4XGXMX7.$XJXqXCX<Xm 8.CXwX2X0XGX*XVXhX.X",
"'.oX'.;.R B.m j d.a.. r 8X.X9.aXv 8 D.Z   r qX}.<X0XeX9Xb.    2.=X  ^ nX*.aX6X@   m.I.f l.4XQ 9.gXeX",
"0.r *Xw.' B.s.K C J.&   |./.0 uX%XS.9     `.ZX1XD.7X`.dXJXR     !.7X%X9.T uX0.. 9 rXK p.rXS.U W.HX3.",
"[ $ 9.fX|.Q.4XXXO.<X^   `.OX&.lXA.;X[ . b VXy o.CX XGX2 6.dX5   $XmXkXuX` AX6.. S.eXd.wXCXnXb.].#Xi ",
"e.Q OXt.*X6.i [.iX6XdXv.+X+XnXpX: / qXr.qX6.  r. X# SXq   +XxX[.kX@.3.AXyXgXr...nXqXZX1X@.-X9X7.qX@.",
"iXBX*XX 3.] 0 (.Y.P yXgX*X@XSX'.= Q  Xx.qX7   r.)   $X[   ) ;Xv.=X,.] $XmXfX|.nXsX%.&X].e <.) @ VXGX",
"!.2 !.;.+X&Xe.lXY., 9.BX' . '.VX#X-XZ   -X  + 4Xu    X X. t `.. ].kX;XmXr.2 b.dXT.! uXnX[ KXqX$.xX..",
"' .  .dX0.OXxXR.R.R.*X@X7   ( |.&XpX Xu.SXr.b.VXr   `.CXv m.eX6.iXAXcX%Xt   ' xXoXE.6X%X=XqX].ZX4.  ",
"( . :.~.. ; |.. R.dX*XdX..  Q.6X&.Y dX%X3.nX Xx.u.t %X6..X Xy.FXoXw 3.xXu . r.mXJXSX) . xXt   MX6.  ",
"... 5.R X b `.6.#XW ` =X*X4XhX@X9.w yXy.$ <.r t JXFX4X  S.3.N #XW.6 R.MX.X6.7XOX,.A.O.{ 9X9 . r.5.. ",
"{.; 3XR . !.xXiXKX6 [ pXiX'.|.OXaX'.BXb.: #X#X#X#X,.].y.mX).W -XlXR.xX4XXX5X7X].1 @.k.0XNX2.. ( 3Xo ",
"|.8.~.R o.3Xy    X].!.@X*.jX0.. t.4Xl.2XqX-XtXFX<.e #XmXpXAX=XqX1XeX9X* O.N.!.cX$.$.#.; 7.1X; v hXX.",
"h.8.5.3X3Xv .   4.8X3Xw.Y tX3.. m J.l d.0X9.0 _.zX~ lX3.` pX0Xd.F rXG.. +.z.E /.9XG.m . . k.9Xk.B.5X",
"F.V.>X~.h.2 . ) }.2 4.!.U yX@X. . 2Xp.j B.t.I E.pXbXpX*.` 7Xf.x s.l.o @ +Xr.T oXv { C . . * B.:X^.0X",
"V.} a.J.~.XXXX>X0Xx.v.vXiX6X,XC | eXJ.C.eXBXjXgXdXnXSXiXlXGXL.i.L.J.8 ( ,X7XoXFX..D.1X8.C _ B.j.2XC.",
"V d g d.j.|.;.# t cX#X,.%Xh.i.H.F.) XXO. .;.8XXX6.2 +XSXdXR +.} 7.#.1XG.G 1XnX#X%X1Xx.x.hXhXj.L.J H ",
"c f a f.:X4.. . . t.e.: 7.J.V H.C . 4.|   . C F.@   ) fX+   . XXt . D.l.V K.@.4 u.C   . 3 3X,XC.h B ",
"V s l B.O.XX8.7 2 n.-XR XXV.F K.8.. m.) % & XX4Xb . h.5X| . . S.| . <Xl.x L.@.M D.t . . 3 ^.hXC.h B ",
"p.x V.,XN.h.m.4XF.X.%X6X,X,XG.+.XX X2XJ.D.eXBX6X.X XfX*XSX6X1X,XeXxXk.M.a.wXZXbX1Xc.b.`.DX0X^.2XH h ",
"O.a.k.^.D.@ . ^ XX@ t >X) >X4Xo @ G.g.J G.xX=.tXnXmXiXT.W.6XK x 2X$.. | hXQ.E.SXv h.CX+XR :.^.B.,Xd.",
" .:.8.Q.XX|   . o.D.n.n.O.N.2.. q 2XJ J 1XQ.%.uXkX9.SX&.Y Q.S a a.h.. 7 6X' w pX5.S.4.. o ' ^.^.c.F.",
"z.R ~.' 3 Q.R X 2.`.!.{.#.9X| . `.0Xi.J.eX=XR.lX1.> KXiXy.gXNXl.} 9X@   |.;.` gX;XS.@   3 1XX.h.c.N.",
"j.o ;. .o R .X4.Q.t 5 [.XX,Xh._ eXXXJ.G.b *XgX&X<.e -XmXHXOX6.8X0XNXm.v {.|.vX'.1 r.^ 9 XX#.. 4.B.n "
};
